{
    "asset" : {
        "generator" : "Khronos glTF Blender I/O v3.2.43",
        "version" : "2.0"
    },
    "scene" : 0,
    "scenes" : [
        {
            "name" : "Scene",
            "nodes" : [
                5
            ]
        }
    ],
    "nodes" : [
        {
            "mesh" : 0,
            "name" : "Sphere",
            "scale" : [
                1.0171679258346558,
                1.0171679258346558,
                1.0171679258346558
            ],
            "translation" : [
                0.03683922439813614,
                0.016370950266718864,
                0.011528030037879944
            ]
        },
        {
            "mesh" : 1,
            "name" : "Sphere.001",
            "scale" : [
                1.0171679258346558,
                1.0171679258346558,
                1.0171679258346558
            ],
            "translation" : [
                0.0034831445664167404,
                0.017124339938163757,
                0.03129805624485016
            ]
        },
        {
            "mesh" : 2,
            "name" : "Sphere.002",
            "scale" : [
                1.0171679258346558,
                1.0171679258346558,
                1.0171679258346558
            ],
            "translation" : [
                -0.010958762839436531,
                0.016690358519554138,
                0.030979935079813004
            ]
        },
        {
            "mesh" : 3,
            "name" : "Sphere.003",
            "scale" : [
                1.0171679258346558,
                1.0171679258346558,
                1.0171679258346558
            ],
            "translation" : [
                -0.028279948979616165,
                0.016258858144283295,
                -0.006035981234163046
            ]
        },
        {
            "children" : [
                0,
                1,
                2,
                3
            ],
            "mesh" : 4,
            "name" : "Icing",
            "translation" : [
                0,
                0.0020000000949949026,
                0
            ]
        },
        {
            "children" : [
                4
            ],
            "mesh" : 5,
            "name" : "Dough",
            "rotation" : [
                0.34828981757164,
                -0.3901655077934265,
                0.1624102145433426,
                0.836712658405304
            ],
            "translation" : [
                0,
                0.0026990235783159733,
                0
            ]
        }
    ],
    "materials" : [
        {
            "doubleSided" : true,
            "name" : "Material.005",
            "pbrMetallicRoughness" : {
                "baseColorFactor" : [
                    0.18864987790584564,
                    0.6196860671043396,
                    0.8000000715255737,
                    1
                ],
                "metallicFactor" : 0,
                "roughnessFactor" : 0
            }
        },
        {
            "doubleSided" : true,
            "name" : "Material.001",
            "pbrMetallicRoughness" : {
                "baseColorFactor" : [
                    0.8000000715255737,
                    0.1600000113248825,
                    0.7483554482460022,
                    1
                ],
                "metallicFactor" : 0,
                "roughnessFactor" : 0.08888894319534302
            }
        },
        {
            "doubleSided" : true,
            "name" : "Material.002",
            "pbrMetallicRoughness" : {
                "baseColorTexture" : {
                    "index" : 0
                },
                "metallicFactor" : 0,
                "roughnessFactor" : 0.5195530652999878
            }
        }
    ],
    "meshes" : [
        {
            "name" : "Sphere",
            "primitives" : [
                {
                    "attributes" : {
                        "POSITION" : 0,
                        "NORMAL" : 1,
                        "TEXCOORD_0" : 2
                    },
                    "indices" : 3,
                    "material" : 0
                }
            ]
        },
        {
            "name" : "Sphere.001",
            "primitives" : [
                {
                    "attributes" : {
                        "POSITION" : 4,
                        "NORMAL" : 5,
                        "TEXCOORD_0" : 6
                    },
                    "indices" : 3,
                    "material" : 0
                }
            ]
        },
        {
            "name" : "Sphere.002",
            "primitives" : [
                {
                    "attributes" : {
                        "POSITION" : 7,
                        "NORMAL" : 8,
                        "TEXCOORD_0" : 9
                    },
                    "indices" : 3,
                    "material" : 0
                }
            ]
        },
        {
            "name" : "Sphere.003",
            "primitives" : [
                {
                    "attributes" : {
                        "POSITION" : 10,
                        "NORMAL" : 11,
                        "TEXCOORD_0" : 12
                    },
                    "indices" : 3,
                    "material" : 0
                }
            ]
        },
        {
            "name" : "Torus.002",
            "primitives" : [
                {
                    "attributes" : {
                        "POSITION" : 13,
                        "NORMAL" : 14,
                        "TEXCOORD_0" : 15
                    },
                    "indices" : 16,
                    "material" : 1
                }
            ]
        },
        {
            "name" : "Torus.001",
            "primitives" : [
                {
                    "attributes" : {
                        "POSITION" : 17,
                        "NORMAL" : 18,
                        "TEXCOORD_0" : 19
                    },
                    "indices" : 20,
                    "material" : 2
                }
            ]
        }
    ],
    "textures" : [
        {
            "sampler" : 0,
            "source" : 0
        }
    ],
    "images" : [
        {
            "bufferView" : 21,
            "mimeType" : "image/png",
            "name" : "Donut Base"
        }
    ],
    "accessors" : [
        {
            "bufferView" : 0,
            "componentType" : 5126,
            "count" : 559,
            "max" : [
                0.0022859317250549793,
                0.002285933820530772,
                0.0022859310265630484
            ],
            "min" : [
                -0.0022859331220388412,
                -0.002285933820530772,
                -0.0022859324235469103
            ],
            "type" : "VEC3"
        },
        {
            "bufferView" : 1,
            "componentType" : 5126,
            "count" : 559,
            "type" : "VEC3"
        },
        {
            "bufferView" : 2,
            "componentType" : 5126,
            "count" : 559,
            "type" : "VEC2"
        },
        {
            "bufferView" : 3,
            "componentType" : 5123,
            "count" : 2880,
            "type" : "SCALAR"
        },
        {
            "bufferView" : 4,
            "componentType" : 5126,
            "count" : 559,
            "max" : [
                0.0022859317250549793,
                0.002285933820530772,
                0.0022859310265630484
            ],
            "min" : [
                -0.0022859331220388412,
                -0.002285933820530772,
                -0.0022859324235469103
            ],
            "type" : "VEC3"
        },
        {
            "bufferView" : 5,
            "componentType" : 5126,
            "count" : 559,
            "type" : "VEC3"
        },
        {
            "bufferView" : 6,
            "componentType" : 5126,
            "count" : 559,
            "type" : "VEC2"
        },
        {
            "bufferView" : 7,
            "componentType" : 5126,
            "count" : 559,
            "max" : [
                0.0022859317250549793,
                0.002285933820530772,
                0.0022859310265630484
            ],
            "min" : [
                -0.0022859331220388412,
                -0.002285933820530772,
                -0.0022859324235469103
            ],
            "type" : "VEC3"
        },
        {
            "bufferView" : 8,
            "componentType" : 5126,
            "count" : 559,
            "type" : "VEC3"
        },
        {
            "bufferView" : 9,
            "componentType" : 5126,
            "count" : 559,
            "type" : "VEC2"
        },
        {
            "bufferView" : 10,
            "componentType" : 5126,
            "count" : 559,
            "max" : [
                0.0022859317250549793,
                0.002285933820530772,
                0.0022859310265630484
            ],
            "min" : [
                -0.0022859331220388412,
                -0.002285933820530772,
                -0.0022859324235469103
            ],
            "type" : "VEC3"
        },
        {
            "bufferView" : 11,
            "componentType" : 5126,
            "count" : 559,
            "type" : "VEC3"
        },
        {
            "bufferView" : 12,
            "componentType" : 5126,
            "count" : 559,
            "type" : "VEC2"
        },
        {
            "bufferView" : 13,
            "componentType" : 5126,
            "count" : 42676,
            "max" : [
                0.05057275667786598,
                0.01615280658006668,
                0.047447752207517624
            ],
            "min" : [
                -0.044603560119867325,
                -0.005850725341588259,
                -0.04571889340877533
            ],
            "type" : "VEC3"
        },
        {
            "bufferView" : 14,
            "componentType" : 5126,
            "count" : 42676,
            "type" : "VEC3"
        },
        {
            "bufferView" : 15,
            "componentType" : 5126,
            "count" : 42676,
            "type" : "VEC2"
        },
        {
            "bufferView" : 16,
            "componentType" : 5123,
            "count" : 255264,
            "type" : "SCALAR"
        },
        {
            "bufferView" : 17,
            "componentType" : 5126,
            "count" : 697,
            "max" : [
                0.05017475783824921,
                0.017168600112199783,
                0.04823967069387436
            ],
            "min" : [
                -0.045319538563489914,
                -0.015646889805793762,
                -0.04591500014066696
            ],
            "type" : "VEC3"
        },
        {
            "bufferView" : 18,
            "componentType" : 5126,
            "count" : 697,
            "type" : "VEC3"
        },
        {
            "bufferView" : 19,
            "componentType" : 5126,
            "count" : 697,
            "type" : "VEC2"
        },
        {
            "bufferView" : 20,
            "componentType" : 5123,
            "count" : 3840,
            "type" : "SCALAR"
        }
    ],
    "bufferViews" : [
        {
            "buffer" : 0,
            "byteLength" : 6708,
            "byteOffset" : 0
        },
        {
            "buffer" : 0,
            "byteLength" : 6708,
            "byteOffset" : 6708
        },
        {
            "buffer" : 0,
            "byteLength" : 4472,
            "byteOffset" : 13416
        },
        {
            "buffer" : 0,
            "byteLength" : 5760,
            "byteOffset" : 17888
        },
        {
            "buffer" : 0,
            "byteLength" : 6708,
            "byteOffset" : 23648
        },
        {
            "buffer" : 0,
            "byteLength" : 6708,
            "byteOffset" : 30356
        },
        {
            "buffer" : 0,
            "byteLength" : 4472,
            "byteOffset" : 37064
        },
        {
            "buffer" : 0,
            "byteLength" : 6708,
            "byteOffset" : 41536
        },
        {
            "buffer" : 0,
            "byteLength" : 6708,
            "byteOffset" : 48244
        },
        {
            "buffer" : 0,
            "byteLength" : 4472,
            "byteOffset" : 54952
        },
        {
            "buffer" : 0,
            "byteLength" : 6708,
            "byteOffset" : 59424
        },
        {
            "buffer" : 0,
            "byteLength" : 6708,
            "byteOffset" : 66132
        },
        {
            "buffer" : 0,
            "byteLength" : 4472,
            "byteOffset" : 72840
        },
        {
            "buffer" : 0,
            "byteLength" : 512112,
            "byteOffset" : 77312
        },
        {
            "buffer" : 0,
            "byteLength" : 512112,
            "byteOffset" : 589424
        },
        {
            "buffer" : 0,
            "byteLength" : 341408,
            "byteOffset" : 1101536
        },
        {
            "buffer" : 0,
            "byteLength" : 510528,
            "byteOffset" : 1442944
        },
        {
            "buffer" : 0,
            "byteLength" : 8364,
            "byteOffset" : 1953472
        },
        {
            "buffer" : 0,
            "byteLength" : 8364,
            "byteOffset" : 1961836
        },
        {
            "buffer" : 0,
            "byteLength" : 5576,
            "byteOffset" : 1970200
        },
        {
            "buffer" : 0,
            "byteLength" : 7680,
            "byteOffset" : 1975776
        },
        {
            "buffer" : 0,
            "byteLength" : 25363,
            "byteOffset" : 1983456
        }
    ],
    "samplers" : [
        {
            "magFilter" : 9729,
            "minFilter" : 9987
        }
    ],
    "buffers" : [
        {
            "byteLength" : 2008820,
            "uri" : "data:application/octet-stream;base64,"
        }
    ]
}
